<svg width="19" height="23" viewBox="0 0 19 23" fill="none" xmlns="http://www.w3.org/2000/svg">
<path d="M9.16667 9.16667V16.1667M9.16667 16.1667L5.66667 12.6667M9.16667 16.1667L12.6667 12.6667M15 22H3.33333C2.71449 22 2.121 21.7542 1.68342 21.3166C1.24583 20.879 1 20.2855 1 19.6667V3.33333C1 2.71449 1.24583 2.121 1.68342 1.68342C2.121 1.24583 2.71449 1 3.33333 1H9.85033C10.1597 1.00007 10.4564 1.12303 10.6752 1.34183L16.9915 7.65817C17.2103 7.87691 17.3333 8.17361 17.3333 8.483V19.6667C17.3333 20.2855 17.0875 20.879 16.6499 21.3166C16.2123 21.7542 15.6188 22 15 22Z" stroke="#9E2A2F" stroke-width="2" stroke-linecap="round" stroke-linejoin="round"/>
</svg>
